<svg width="15" height="15" viewBox="0 0 15 15" fill="none" xmlns="http://www.w3.org/2000/svg">
<g id="Group 6">
<path id="Vector" d="M11.4393 15C11.4393 15 9.3028 14.25 7.52238 14.25C5.74197 14.25 3.60547 15 3.60547 15V10.5H11.4393V15Z" fill="#BF360C"/>
<path id="Vector_2" d="M3.96146 9C3.96146 9.82838 3.32371 10.5 2.53713 10.5C1.75054 10.5 1.11279 9.82838 1.11279 9C1.11279 8.17162 1.75054 7.5 2.53713 7.5C3.32371 7.5 3.96146 8.17162 3.96146 9ZM13.9318 9C13.9318 9.82838 13.294 10.5 12.5075 10.5C11.7209 10.5 11.0831 9.82838 11.0831 9C11.0831 8.17162 11.7209 7.5 12.5075 7.5C13.294 7.5 13.9318 8.17162 13.9318 9Z" fill="#FFA726"/>
<path id="Vector_3" d="M12.5074 5.25C12.5074 0.478122 2.53711 2.1435 2.53711 5.25V8.625C2.53711 11.7315 4.76939 14.25 7.52227 14.25C10.2752 14.25 12.5074 11.7315 12.5074 8.625V5.25Z" fill="#FFB74D"/>
<path id="Vector_4" d="M10.3712 8.25C10.3712 8.66438 10.0525 9 9.65899 9C9.26552 9 8.94683 8.66438 8.94683 8.25C8.94683 7.83562 9.26552 7.5 9.65899 7.5C10.0525 7.5 10.3712 7.83562 10.3712 8.25ZM6.09816 8.25C6.09816 8.66438 5.77947 9 5.38599 9C4.99252 9 4.67383 8.66438 4.67383 8.25C4.67383 7.83562 4.99252 7.5 5.38599 7.5C5.77947 7.5 6.09816 7.83562 6.09816 8.25Z" fill="#784719"/>
<path id="Vector_5" d="M7.52226 0C4.49377 0 0.0445104 1.875 0 12L3.60534 15V7.5L9.56973 4.125L11.3947 6.75L11.4392 15L15 12C15 7.5 14.8066 1.125 9.65875 1.125L8.94659 0H7.52226Z" fill="#FF5722"/>
<path id="Vector_6" d="M5.7417 11.625H9.30253C9.30253 11.625 8.59036 12.75 7.52211 12.75C6.45387 12.75 5.7417 11.625 5.7417 11.625Z" fill="#FB8C00"/>
</g>
</svg>
