<svg width="12" height="12" viewBox="0 0 12 12" fill="none" xmlns="http://www.w3.org/2000/svg">
<g id="edit">
<path id="Vector 136 (Stroke)" fill-rule="evenodd" clip-rule="evenodd" d="M8.86195 0.195262C9.1223 -0.0650874 9.54441 -0.0650874 9.80476 0.195262L11.8048 2.19526C12.0651 2.45561 12.0651 2.87772 11.8048 3.13807L3.80475 11.1381C3.71931 11.2235 3.61226 11.2841 3.49504 11.3134L0.828372 11.9801C0.601188 12.0369 0.360863 11.9703 0.195276 11.8047C0.0296894 11.6392 -0.0368767 11.3988 0.0199191 11.1716L0.686586 8.50498C0.715892 8.38776 0.776504 8.28071 0.861943 8.19527L8.86195 0.195262ZM1.93532 9.0075L1.58293 10.4171L2.99252 10.0647L10.3905 2.66667L9.33335 1.60948L1.93532 9.0075Z" fill="#454C53"/>
</g>
</svg>
