<svg width="54" height="67" viewBox="0 0 54 67" fill="none" xmlns="http://www.w3.org/2000/svg">
<g id="Frame" clip-path="url(#clip0_3573_13436)">
<path id="Vector" fill-rule="evenodd" clip-rule="evenodd" d="M27 0C12.0883 0 0 12.0883 0 27V27.8926C0 39.7472 7.63979 49.8173 18.2644 53.4482C18.4506 53.5118 18.5987 53.6544 18.6809 53.8332L23.3009 63.8815C25.0856 67.7632 30.6018 67.7632 32.3866 63.8815L37.0066 53.8332C37.2822 53.2337 37.71 52.694 38.3091 52.4172C47.5722 48.1386 54 38.7662 54 27.8926V27C54 12.0883 41.9117 0 27 0Z" fill="white"/>
<g id="Mask group">
<mask id="mask0_3573_13436" style="mask-type:luminance" maskUnits="userSpaceOnUse" x="0" y="0" width="54" height="67">
<g id="Group">
<path id="Vector_2" fill-rule="evenodd" clip-rule="evenodd" d="M27 0C12.0883 0 0 12.0883 0 27V27.8926C0 39.7472 7.63979 49.8173 18.2644 53.4482C18.4506 53.5118 18.5987 53.6544 18.6809 53.8332L23.3009 63.8815C25.0856 67.7632 30.6018 67.7632 32.3866 63.8815L37.0066 53.8332C37.2822 53.2337 37.71 52.694 38.3091 52.4172C47.5722 48.1386 54 38.7662 54 27.8926V27C54 12.0883 41.9117 0 27 0Z" fill="white"/>
</g>
</mask>
<g mask="url(#mask0_3573_13436)">
<path id="Vector_3" d="M1.5 27C1.5 12.9168 12.9167 1.5 27 1.5V-1.5C11.2599 -1.5 -1.5 11.2599 -1.5 27H1.5ZM1.5 27.8926V27H-1.5V27.8926H1.5ZM18.7495 52.0288C8.71328 48.599 1.5 39.0863 1.5 27.8926H-1.5C-1.5 40.4081 6.5663 51.0357 17.7793 54.8676L18.7495 52.0288ZM17.3181 54.4598L21.9381 64.5081L24.6638 63.2549L20.0438 53.2066L17.3181 54.4598ZM21.9381 64.5081C24.2582 69.5544 31.4293 69.5544 33.7494 64.5081L31.0237 63.2549C29.7744 65.9721 25.9131 65.9721 24.6638 63.2549L21.9381 64.5081ZM33.7494 64.5081L38.3694 54.4598L35.6437 53.2066L31.0237 63.2549L33.7494 64.5081ZM52.5 27.8926C52.5 38.1599 46.432 47.013 37.6801 51.0555L38.9381 53.779C48.7125 49.2642 55.5 39.3726 55.5 27.8926H52.5ZM52.5 27V27.8926H55.5V27H52.5ZM27 1.5C41.0833 1.5 52.5 12.9167 52.5 27H55.5C55.5 11.2599 42.7401 -1.5 27 -1.5V1.5ZM38.3694 54.4598C38.5538 54.0589 38.7703 53.8565 38.9381 53.779L37.6801 51.0555C36.6497 51.5314 36.0107 52.4085 35.6437 53.2066L38.3694 54.4598ZM17.7793 54.8676C17.5425 54.7867 17.3918 54.6201 17.3181 54.4598L20.0438 53.2066C19.8056 52.6887 19.3588 52.237 18.7495 52.0288L17.7793 54.8676Z" fill="#D3B64B"/>
</g>
</g>
</g>
<defs>
<clipPath id="clip0_3573_13436">
<rect width="54" height="67" fill="white"/>
</clipPath>
</defs>
</svg>
