<svg width="32" height="39" viewBox="0 0 32 39" fill="none" xmlns="http://www.w3.org/2000/svg">
<g id="Union">
<mask id="path-1-inside-1_3325_17251" fill="white">
<path fill-rule="evenodd" clip-rule="evenodd" d="M16 0C7.16344 0 0 7.16344 0 16C0 22.6274 4.0294 28.3137 9.772 30.7426C10.5331 31.0645 11.1823 31.6224 11.5323 32.3711L13.7822 37.185C14.8601 39.4913 18.1399 39.4913 19.2178 37.185L21.7412 31.7859C22.0553 31.114 22.6127 30.5928 23.2731 30.2552C28.4535 27.6069 32 22.2176 32 16C32 7.16344 24.8366 0 16 0Z"/>
</mask>
<path fill-rule="evenodd" clip-rule="evenodd" d="M16 0C7.16344 0 0 7.16344 0 16C0 22.6274 4.0294 28.3137 9.772 30.7426C10.5331 31.0645 11.1823 31.6224 11.5323 32.3711L13.7822 37.185C14.8601 39.4913 18.1399 39.4913 19.2178 37.185L21.7412 31.7859C22.0553 31.114 22.6127 30.5928 23.2731 30.2552C28.4535 27.6069 32 22.2176 32 16C32 7.16344 24.8366 0 16 0Z" fill="white"/>
<path d="M21.7412 31.7859L23.1001 32.4211L21.7412 31.7859ZM23.2731 30.2552L22.5903 28.9196L23.2731 30.2552ZM9.772 30.7426L9.18766 32.1241L9.772 30.7426ZM1.5 16C1.5 7.99187 7.99187 1.5 16 1.5V-1.5C6.33502 -1.5 -1.5 6.33502 -1.5 16H1.5ZM10.3563 29.3611C5.14912 27.1586 1.5 22.0037 1.5 16H-1.5C-1.5 23.2511 2.90968 29.4687 9.18766 32.1241L10.3563 29.3611ZM10.1734 33.0062L12.4233 37.8201L15.1411 36.5499L12.8912 31.736L10.1734 33.0062ZM20.5767 37.8201L23.1001 32.4211L20.3823 31.1508L17.8589 36.5499L20.5767 37.8201ZM30.5 16C30.5 21.6325 27.2888 26.5176 22.5903 28.9196L23.9558 31.5908C29.6182 28.6961 33.5 22.8026 33.5 16H30.5ZM16 1.5C24.0081 1.5 30.5 7.99187 30.5 16H33.5C33.5 6.33502 25.665 -1.5 16 -1.5V1.5ZM23.1001 32.4211C23.25 32.1005 23.5402 31.8033 23.9558 31.5908L22.5903 28.9196C21.6851 29.3824 20.8606 30.1276 20.3823 31.1508L23.1001 32.4211ZM12.4233 37.8201C14.0402 41.2796 18.9598 41.2796 20.5767 37.8201L17.8589 36.5499C17.3199 37.703 15.6801 37.703 15.1411 36.5499L12.4233 37.8201ZM9.18766 32.1241C9.6687 32.3276 10.0066 32.6494 10.1734 33.0062L12.8912 31.736C12.3581 30.5953 11.3976 29.8015 10.3563 29.3611L9.18766 32.1241Z" fill="black" mask="url(#path-1-inside-1_3325_17251)"/>
</g>
</svg>
