<svg width="394" height="852" viewBox="0 0 394 852" fill="none" xmlns="http://www.w3.org/2000/svg">
<g clip-path="url(#clip0_923_14835)">
<rect width="394" height="852" fill="#15004B"/>
<path fill-rule="evenodd" clip-rule="evenodd" d="M200.99 597V617.028H207.908V694.965H216.996V670.964L224.5 670.964V655.147L232.251 670.964H234.816V656.545L247.343 612.981L259.869 656.545V705.578H265.749V715.106H274.425V676.218H281.616L281.317 660.083H289.638V655.462H298.069L304.473 623V655.462V660.083L303.671 703.295L316.5 703.295V670.964L331 670.964V694.965L340.09 694.965V676.218L350.851 664L358.5 681.939L369.285 681.939V658L394 687.654V852H375.567H369.285H351.636H350.851H340.09H322.657H305.224H301.611H285.973H284.179H275.434H274.425H259.869H250.381H234.816H216.996H207.908H192.506H185.921H170.477H166.289H152.106H144.384H131.91H127.39H120.957H110.005H107.193H96.241H90.3308H85.2883H65.6161H57.4655H46.8646H36.2625H28.1007H25.6616H13.8208H10.6682H0V691.832H8.39517L7.80664 660.083H25.6616V614.124H36.2625V623.894H46.8646V632.838H57.4655V678.952H65.6161V657.512H68.5182L72.5 657.512V641L75 632.838L77 624.662L79 630.5L82.5 641V657.512L87.428 657.512H90.3308V702.218H96.241V644.761H99.1445L103 644.818V622L109 622L114 622V644.818L118.054 644.761H120.957V677.848H127.39V657.512H130.293V647L149.202 647V657.512H152.106V665.166L158.174 673.588V687.708H166.289V678.952H170.477V657.512H185.921V644.818L192.506 637.579V617.028H199.425V597H200.99Z" fill="white" fill-opacity="0.2"/>
<path fill-rule="evenodd" clip-rule="evenodd" d="M271.06 707V718.388H266.828V762.706H261.269V749.058H258.341V745.761L251.938 749.058H250.369V740.859L242.707 718.388L235.045 740.859V768.74H231.448V781H226.141V752.046H221.742L221.926 742.871H216.836V740.243H211.679L210.885 724.352L210.092 740.243H209.1V742.871H207.761L208.252 767.442H204V756.5L196.639 749.058V762.706H185.975V752.046H179.393V737L168.118 755.299V742.871L153 758.549V852H164.275H168.118H178.913H179.393H185.975H196.639H207.302H209.512H219.078H220.175H225.524H226.141H235.045H240.848H250.369H261.269H266.828H276.249H280.277H289.724H292.285H300.96H305.684H313.314H316.078H320.014H326.713H328.433H335.132H338.747H341.831H353.864H358.85H365.334H371.819H376.811H378.303H385.546H387.475H394V760.924H388.865L389.225 742.871H378.303V716.737H371.819V722.292H365.334V727.378H358.85V753.6H353.864V741.409H352.089V740.064H340.522V741.409H338.747V766.83H335.132V734.158H333.356L326.713 718.388L321.79 732.814V734.158H320.014V752.972H316.078V741.409H314.303V740.064H302.737V741.409H300.96V745.761L297.249 750.55V758.579H292.285V753.6H289.724V741.409H280.277V734.191L276.249 730.074V718.388H272.017V707H271.06Z" fill="white" fill-opacity="0.2"/>
<path fill-rule="evenodd" clip-rule="evenodd" d="M57.6064 707V718.388H54.3227V762.706H50.0096V749.058H47.738V745.761L42.769 749.058H41.5517V740.859L35.6063 728.976L29.6612 740.859V768.74H26.8704V774.158H22.7524V752.046H19.3396L19.4817 742.871H15.5323V740.243H11.5307L10.9149 724.352L10.2995 740.243H9.52977V742.871H8.49129L8.8718 767.442H8.13467V756.602L-0.13913 749.058V762.706H-8.41324V752.046H-13.5207V745.761L-22.2696 755.299V745.761L-34 758.549V852H153V760.924H149.015L149.295 742.871H140.821V716.737H135.789V722.292V733L130.757 727.378H125.726V753.6H121.857V741.409H120.48V740.064H111.505V741.409H110.127V766.83H107.322V734.158H105.944L102 712L96.9695 732.814V734.158H95.5915V752.972H92.5381V741.409H91.1604V740.064H82.1858V741.409H80.8074V745.761L77.9275 750.55V758.579H74.0761V753.6H72.0885V730.074L64.7583 741.409V734.191L61.6332 730.074V718.388H58.3492V707H57.6064Z" fill="white" fill-opacity="0.2"/>
</g>
<defs>
<clipPath id="clip0_923_14835">
<rect width="394" height="852" fill="white"/>
</clipPath>
</defs>
</svg>
