<svg width="74" height="84" viewBox="0 0 74 84" fill="none" xmlns="http://www.w3.org/2000/svg">
<g id="Bell icon">
<g id="Bell">
<path id="Vector" d="M37.7997 79.3723C42.6127 77.4433 44.9507 71.9779 43.0218 67.1649C41.0928 62.3519 35.6273 60.0139 30.8143 61.9428C26.0013 63.8718 23.6633 69.3373 25.5923 74.1503C27.5213 78.9633 32.9867 81.3013 37.7997 79.3723Z" fill="#C1BDFF" fill-opacity="0.6"/>
<path id="Vector_2" d="M0.34375 58.436L68.1744 83.1707L65.4608 76.0903C63.7886 71.7184 63.748 66.8903 65.3464 62.4909L72.0525 44.088C73.2432 40.8362 73.7801 37.3813 73.6324 33.9216C73.4848 30.4618 72.6554 27.0652 71.1919 23.9268C69.7284 20.7883 67.6597 17.9696 65.1043 15.6326C62.5489 13.2955 59.5573 11.486 56.3009 10.3079C49.7502 7.93 42.5236 8.2488 36.2078 11.1943C29.8919 14.1397 25.003 19.4711 22.6143 26.0179L16.1681 43.6929C14.6716 47.7898 11.8457 51.2672 8.14157 53.5702L0.34375 58.436Z" fill="#C1BDFF" fill-opacity="0.6"/>
<path id="Vector_3" d="M54.1474 3.74822L51.099 12.1098C50.5169 13.7067 51.3394 15.4732 52.9363 16.0553L53.8057 16.3723C55.4026 16.9544 57.169 16.1318 57.7512 14.5349L60.7995 6.17335C61.3817 4.57648 60.5591 2.81004 58.9622 2.22788L58.0928 1.91094C56.496 1.32878 54.7295 2.15135 54.1474 3.74822Z" fill="#C1BDFF" fill-opacity="0.6"/>
<path id="Vector_4" d="M68.1331 83.2852C68.0811 83.4203 52.9533 78.0346 34.3529 71.2453C15.7525 64.456 0.707914 58.8416 0.7599 58.696C0.811885 58.5505 15.9397 63.8946 34.5401 70.7359C53.1405 77.5771 68.1851 83.1812 68.1331 83.2852Z" fill="#738096"/>
<g id="Group" opacity="0.3">
<path id="Vector_5" d="M25.3906 67.6895C27.1587 70.4687 29.7556 72.6218 32.8142 73.8445C36.0811 75.1232 39.6918 75.2225 43.0241 74.1253L25.3906 67.6895Z" fill="black"/>
</g>
<g id="Group_2" opacity="0.2">
<path id="Vector_6" d="M70.8572 39.4825C71.1654 38.7 71.283 37.8553 71.2003 37.0184C71.1474 36.6017 70.9535 36.2157 70.6509 35.9245C70.3483 35.6332 69.9552 35.4542 69.5368 35.4172C69.0872 35.3516 68.6286 35.4429 68.2385 35.6758C67.8484 35.9088 67.5505 36.2691 67.395 36.6961C66.3553 39.5969 63.9535 46.0535 62.394 49.7652C61.1151 52.8844 59.4412 56.0659 56.5404 57.7398C54.2146 58.9336 51.5453 59.2792 48.9921 58.7171C46.4634 58.1434 43.9924 57.3395 41.6102 56.3154C38.5745 55.0678 35.3968 54.1983 32.1488 53.7265C31.2862 53.5645 30.3959 53.6363 29.5704 53.9345C29.1677 54.0964 28.832 54.3904 28.6185 54.7683C28.4051 55.1462 28.3264 55.5854 28.3955 56.0139C28.6138 56.7833 29.4352 57.2199 30.1422 57.5527C37.6281 61.0565 45.2284 64.4563 53.2653 66.359C54.9121 66.8852 56.682 66.8852 58.3287 66.359C60.1274 65.6104 61.2087 63.7909 62.1029 62.065C65.6909 54.8146 68.6208 47.2568 70.8572 39.4825Z" fill="black"/>
</g>
<g id="Group_3" opacity="0.2">
<path id="Vector_7" d="M51.7161 15.7044C51.6433 14.0201 50.5932 12.1798 47.4844 11.8887C42.7088 11.4291 37.931 12.7429 34.0618 15.5797C29.8712 18.4404 26.8144 22.678 25.4218 27.5571C24.9435 29.2415 24.7148 31.1857 25.6817 32.6517C27.1269 34.8767 30.6308 34.7311 32.7726 33.2028C34.9144 31.6744 36.0997 29.1167 37.3681 26.7774C38.6365 24.438 40.2689 22.0467 42.7746 21.1733C44.7916 20.4663 47.1309 20.8406 49.0128 19.8113C49.7835 19.4233 50.4388 18.8398 50.9132 18.1191C51.3876 17.3983 51.6644 16.5657 51.7161 15.7044Z" fill="white"/>
</g>
<path id="Vector_8" d="M69.0998 19.9981C69.0166 20.0605 68.0601 18.6569 66.1574 16.775C65.0333 15.685 63.8234 14.6871 62.5392 13.7911C60.9408 12.7171 59.2457 11.7947 57.4759 11.0358C55.6946 10.3038 53.8501 9.73657 51.9654 9.34111C50.4228 9.03731 48.8581 8.85997 47.2867 8.81085C44.5938 8.74847 42.9407 9.04999 42.9199 8.94602C43.2928 8.81354 43.6803 8.72628 44.074 8.68609C44.5307 8.6001 44.9927 8.54452 45.4568 8.51973C46.0538 8.45015 46.6545 8.4189 47.2555 8.42616C48.8559 8.41103 50.4541 8.55031 52.0278 8.84205C55.8997 9.55939 59.5706 11.1058 62.7888 13.3752C64.0964 14.299 65.3148 15.3433 66.4277 16.4943C66.9164 16.9726 67.2907 17.4612 67.6442 17.8771C67.9507 18.2241 68.2321 18.5924 68.4864 18.9792C68.7363 19.2894 68.9426 19.6322 69.0998 19.9981Z" fill="#738096"/>
<path id="Vector_9" d="M19.3281 37.621C19.4055 37.1496 19.5273 36.6865 19.692 36.2381C19.952 35.3648 20.3574 34.0963 20.8981 32.5472C22.227 28.4522 24.0643 24.5401 26.3669 20.9024C28.701 17.2525 31.9198 14.2518 35.7243 12.1793C36.8839 11.5751 38.1082 11.1042 39.3737 10.7757C39.8312 10.6419 40.3018 10.5582 40.7773 10.5261C39.0992 11.071 37.4712 11.7598 35.9115 12.5847C32.2335 14.7117 29.1149 17.6841 26.814 21.2559C24.5498 24.8547 22.6846 28.6897 21.2516 32.6927C20.7109 34.1587 20.2119 35.3752 19.8896 36.3317C19.7502 36.7807 19.5619 37.213 19.3281 37.621Z" fill="white"/>
<path id="Vector_10" d="M10.2825 53.2891C10.189 53.154 12.1436 51.7919 13.9839 49.5566C15.8242 47.3212 16.8327 45.169 16.9783 45.2418C16.5104 46.9841 15.6254 48.5863 14.3998 49.9101C13.3171 51.3492 11.9052 52.5079 10.2825 53.2891Z" fill="white"/>
<path id="Vector_11" d="M57.2152 2.56226C57.2776 2.70782 56.1755 3.17569 55.2813 4.35056C54.8241 5.10125 54.4344 5.89106 54.1169 6.71069C54.0226 6.23774 54.0392 5.74936 54.1655 5.28393C54.2918 4.81849 54.5243 4.38867 54.8447 4.02825C55.0934 3.61175 55.4385 3.26116 55.8511 3.00602C56.2636 2.75088 56.7315 2.59868 57.2152 2.56226Z" fill="#DAD7FF"/>
</g>
</g>
</svg>
