<svg width="18" height="20" viewBox="0 0 18 20" fill="none" xmlns="http://www.w3.org/2000/svg">
<g id="setting 1">
<path id="Vector 37 (Stroke)" fill-rule="evenodd" clip-rule="evenodd" d="M3.5 5H0V3H3.5V5ZM18 5H8.5V3H18V5Z" fill="#72787F"/>
<path id="Ellipse 18 (Stroke)" fill-rule="evenodd" clip-rule="evenodd" d="M6 2.5C5.17157 2.5 4.5 3.17157 4.5 4C4.5 4.82843 5.17157 5.5 6 5.5C6.82843 5.5 7.5 4.82843 7.5 4C7.5 3.17157 6.82843 2.5 6 2.5ZM2.5 4C2.5 2.067 4.067 0.5 6 0.5C7.933 0.5 9.5 2.067 9.5 4C9.5 5.933 7.933 7.5 6 7.5C4.067 7.5 2.5 5.933 2.5 4Z" fill="#72787F"/>
<path id="Vector 37 (Stroke)_2" fill-rule="evenodd" clip-rule="evenodd" d="M16 11H18V9H16V11ZM0 11H11V9H0V11Z" fill="#72787F"/>
<path id="Ellipse 18 (Stroke)_2" fill-rule="evenodd" clip-rule="evenodd" d="M13.5 8.5C14.3284 8.5 15 9.17157 15 10C15 10.8284 14.3284 11.5 13.5 11.5C12.6716 11.5 12 10.8284 12 10C12 9.17157 12.6716 8.5 13.5 8.5ZM17 10C17 8.067 15.433 6.5 13.5 6.5C11.567 6.5 10 8.067 10 10C10 11.933 11.567 13.5 13.5 13.5C15.433 13.5 17 11.933 17 10Z" fill="#72787F"/>
<path id="Vector 37 (Stroke)_3" fill-rule="evenodd" clip-rule="evenodd" d="M5 17H0V15H5V17ZM18 17H10V15H18V17Z" fill="#72787F"/>
<path id="Ellipse 18 (Stroke)_3" fill-rule="evenodd" clip-rule="evenodd" d="M7.5 14.5C6.67157 14.5 6 15.1716 6 16C6 16.8284 6.67157 17.5 7.5 17.5C8.32843 17.5 9 16.8284 9 16C9 15.1716 8.32843 14.5 7.5 14.5ZM4 16C4 14.067 5.567 12.5 7.5 12.5C9.433 12.5 11 14.067 11 16C11 17.933 9.433 19.5 7.5 19.5C5.567 19.5 4 17.933 4 16Z" fill="#72787F"/>
</g>
</svg>
