<svg width="255" height="228" viewBox="0 0 255 228" fill="none" xmlns="http://www.w3.org/2000/svg">
<path d="M170.15 9.44803C170.15 9.44803 133.817 54.7742 75.3556 27.1675C16.8945 -0.43915 -28.6915 78.9783 21.6502 124.448C71.9919 169.918 9.85338 190.186 44.0535 218.053C82.9242 249.726 127.296 186.332 158.15 200.948C201.65 240.948 254.799 218.053 254.799 182.252C254.799 124.448 209.33 112.424 228.816 78.321C263.65 43.4481 204.65 -25.0519 170.15 9.44803Z" fill="#DBD8FF"/>
<path d="M109 114.672C109 113.619 109.551 112.644 110.453 112.101L150.618 87.9309C151.57 87.3582 152.76 87.3582 153.712 87.9309L193.877 112.101C194.779 112.644 195.331 113.619 195.331 114.672V167.657C195.331 169.314 193.987 170.657 192.331 170.657H112C110.343 170.657 109 169.314 109 167.657V114.672Z" fill="#BAB7E2"/>
<path d="M164.723 85.9053C162.367 82.7966 157.465 83.6427 156.25 87.3488L152.78 97.955C152.637 98.3985 152.265 98.7287 151.81 98.8236L145.984 100.023C145.497 100.122 144.998 99.9369 144.695 99.5478L137.793 90.661C136.001 88.3533 132.339 89.0456 131.516 91.8463L127.732 104.774C127.625 105.466 124.434 114.566 123.967 116.57C122.453 123.086 124.151 130.412 128.038 136H151.311H154.793H156.311H175.222C188.921 133.176 174.564 98.8825 164.723 85.9053Z" fill="#EBC7EA"/>
<path d="M170.392 104.497C162.909 106.04 165.302 117.632 172.798 116.09C180.277 114.547 177.888 102.949 170.392 104.497Z" fill="#EB93BB"/>
<path d="M129.958 112.838C122.47 114.381 124.864 125.983 132.363 124.435C139.855 122.892 137.461 111.29 129.958 112.838Z" fill="#EB93BB"/>
<path d="M143.085 111.804C143.003 111.208 142.674 110.662 142.318 110.291C141.947 109.904 141.464 109.614 140.971 109.618C140.019 109.631 138.982 110.368 138.739 111.608C138.666 111.979 138.571 112.363 138.599 112.746C138.659 113.543 138.757 114.2 139.21 114.814C139.59 115.329 140.229 115.738 140.798 115.73C141.391 115.721 142.008 115.504 142.437 114.959C142.562 114.771 142.686 114.579 142.811 114.392C143.03 113.953 143.149 113.471 143.161 112.951C143.213 112.571 143.133 112.184 143.085 111.804Z" fill="#8F51D2"/>
<path d="M161.421 108.748C161.339 108.152 161.01 107.606 160.654 107.235C160.283 106.848 159.8 106.558 159.307 106.562C158.355 106.575 157.318 107.312 157.074 108.552C157.001 108.923 156.907 109.307 156.935 109.69C156.995 110.487 157.093 111.144 157.546 111.758C157.926 112.273 158.565 112.682 159.134 112.674C159.727 112.665 160.344 112.448 160.773 111.903C160.898 111.715 161.022 111.523 161.147 111.336C161.366 110.897 161.485 110.415 161.497 109.895C161.548 109.515 161.469 109.128 161.421 108.748Z" fill="#8F51D2"/>
<path d="M131.001 117.238C131.155 117.234 131.316 117.226 131.459 117.21C132.704 117.065 133.404 116.401 133.385 115.769C133.354 115.042 132.45 114.543 131.193 114.563C127.96 114.606 124.69 114.547 121.457 114.382C120.627 114.339 119.89 114.528 119.438 114.897C118.936 115.302 118.862 115.863 119.234 116.323C119.58 116.751 120.268 117.018 121.123 117.061C124.386 117.222 127.712 117.285 131.001 117.238Z" fill="#9C5CE0"/>
<path d="M130.751 118.856C128.581 119.745 126.396 120.664 124.268 121.593C123.24 122.041 123.125 122.978 123.543 123.63C123.889 124.171 124.609 124.558 125.43 124.417C125.594 124.391 125.766 124.338 125.939 124.263C128.062 123.339 130.238 122.42 132.399 121.536C132.98 121.298 133.34 120.871 133.383 120.361C133.422 119.802 133.081 119.239 132.519 118.927C131.986 118.641 131.347 118.614 130.751 118.856Z" fill="#9C5CE0"/>
<path d="M171.686 108.595C171.853 108.57 172.031 108.528 172.203 108.466C174.778 107.555 177.353 106.578 179.85 105.568C180.973 105.11 181.062 104.204 180.576 103.584C180.111 102.994 179.077 102.624 178.006 103.056C175.525 104.063 172.971 105.032 170.417 105.934C169.294 106.333 169.137 107.173 169.571 107.801C169.941 108.337 170.746 108.732 171.686 108.595Z" fill="#9C5CE0"/>
<path d="M180.219 111.389C179.879 110.895 179.343 110.642 178.746 110.687C176.25 110.886 173.643 111.004 171 111.036C170.415 111.04 169.92 111.334 169.646 111.832C169.351 112.348 169.347 112.991 169.634 113.47C169.883 113.891 170.337 114.131 170.869 114.126C173.586 114.095 176.409 113.959 179.261 113.732C179.335 113.728 179.4 113.719 179.47 113.701C179.891 113.615 180.214 113.371 180.39 113C180.628 112.511 180.554 111.877 180.219 111.389Z" fill="#9C5CE0"/>
<path d="M155.51 116.869C155.51 117.962 154.615 119.134 153.544 117.896C152.962 117.222 151.461 117.243 151.025 118.024C150.663 118.674 150.13 120.012 148.535 119.255C148.006 119.006 147.615 118.259 147.33 117.872C146.419 116.617 143.997 117.872 144.909 119.123C145.865 120.437 147.2 121.788 149.361 121.84C150.822 121.875 151.578 121.133 152.347 120.314C153.254 120.836 154.611 121.121 155.95 120.568C157.765 119.818 158.459 118.022 158.428 116.741C158.385 114.966 155.51 115.394 155.51 116.869Z" fill="#8F51D2"/>
<path d="M190.402 170.957L152.397 141.979C152.366 141.956 152.341 141.926 152.325 141.891C152.308 141.856 152.3 141.818 152.301 141.779C152.302 141.741 152.312 141.703 152.33 141.669C152.349 141.636 152.375 141.607 152.407 141.585L194.762 112.636C194.799 112.611 194.841 112.597 194.885 112.594C194.93 112.592 194.974 112.601 195.013 112.622C195.052 112.642 195.084 112.673 195.107 112.711C195.13 112.749 195.142 112.792 195.142 112.836L195.249 166.215C195.252 167.469 194.762 168.674 193.886 169.571C193.009 170.467 191.815 170.984 190.562 171.01C190.504 171.01 190.448 170.992 190.402 170.957Z" fill="#938FE2"/>
<path d="M113.972 171.109L151.862 141.98C151.892 141.957 151.917 141.926 151.933 141.892C151.95 141.857 151.958 141.819 151.957 141.78C151.955 141.742 151.945 141.704 151.927 141.67C151.908 141.637 151.882 141.608 151.85 141.586L109.38 112.806C109.343 112.782 109.3 112.767 109.256 112.765C109.212 112.763 109.168 112.772 109.129 112.793C109.09 112.814 109.057 112.845 109.035 112.883C109.012 112.921 109 112.964 109 113.008L109.107 166.387C109.109 167.641 109.604 168.844 110.484 169.737C111.364 170.63 112.559 171.142 113.813 171.163C113.871 171.163 113.927 171.144 113.972 171.109Z" fill="#938FE2"/>
<path d="M190.474 171.01L113.904 171.164C112.746 171.163 111.627 170.743 110.754 169.981C109.881 169.22 109.313 168.168 109.155 167.02C109.129 166.825 109.152 166.626 109.221 166.441C109.29 166.256 109.404 166.091 109.552 165.961L151.314 129.014C151.532 128.821 151.813 128.714 152.104 128.713C152.396 128.713 152.677 128.818 152.896 129.011L194.805 165.79C194.954 165.92 195.068 166.085 195.138 166.269C195.208 166.454 195.232 166.653 195.206 166.848C195.053 167.996 194.489 169.05 193.619 169.815C192.75 170.58 191.633 171.005 190.474 171.01Z" fill="#6559F5"/>
<path d="M92.1202 109.341C92.7859 113.734 98.1606 118.955 98.1606 118.955C89.9709 119.476 85.5355 115.322 83.6271 112.798C81.2675 113.41 78.8424 113.796 76.3923 113.95C59.5789 115.018 45.1051 105.174 44.0598 91.9496C43.0145 78.7256 55.7955 67.148 72.6089 66.0794C89.4223 65.0108 103.895 74.855 104.94 88.0792C105.62 96.681 100.445 104.587 92.1202 109.341Z" fill="white"/>
<path d="M65 90.5C65 92.9853 62.9853 95 60.5 95C58.0147 95 56 92.9853 56 90.5C56 88.0147 58.0147 86 60.5 86C62.9853 86 65 88.0147 65 90.5Z" fill="#D9D9D9"/>
<path d="M79 90.5C79 92.9853 76.9853 95 74.5 95C72.0147 95 70 92.9853 70 90.5C70 88.0147 72.0147 86 74.5 86C76.9853 86 79 88.0147 79 90.5Z" fill="#D9D9D9"/>
<path d="M93 90.5C93 92.9853 90.9853 95 88.5 95C86.0147 95 84 92.9853 84 90.5C84 88.0147 86.0147 86 88.5 86C90.9853 86 93 88.0147 93 90.5Z" fill="#D9D9D9"/>
</svg>
