<svg width="255" height="228" viewBox="0 0 255 228" fill="none" xmlns="http://www.w3.org/2000/svg">
<path d="M170.15 9.44803C170.15 9.44803 133.817 54.7742 75.3556 27.1675C16.8945 -0.43915 -28.6915 78.9783 21.6502 124.448C71.9919 169.918 9.85338 190.186 44.0535 218.053C82.9242 249.726 127.296 186.332 158.15 200.948C201.65 240.948 254.799 218.053 254.799 182.252C254.799 124.448 209.33 112.424 228.816 78.321C263.65 43.4481 204.65 -25.0519 170.15 9.44803Z" fill="#DBD8FF"/>
<path d="M128.115 111.977V173.786L80.125 153.058L80.3539 91.4724L128.115 111.977Z" fill="#6559F5"/>
<path d="M128.117 112.014V173.823L175.873 153.811V91.6697L128.117 112.014Z" fill="#B0AAFF"/>
<path d="M128.115 111.977L176.104 91.8764L128.492 70.771L80.125 91.374L128.115 111.977Z" fill="#6559F5"/>
<path d="M139.432 77.1126C137.794 74.9515 134.387 75.5397 133.542 78.116L131.13 85.4889C131.03 85.7972 130.772 86.0268 130.456 86.0928L126.406 86.9264C126.067 86.9955 125.72 86.8667 125.51 86.5962L120.711 80.4185C119.466 78.8143 116.92 79.2956 116.348 81.2424L113.717 90.2292C113.643 90.7104 111.425 97.036 111.101 98.4294C110.048 102.959 111.229 108.051 113.931 111.936H130.109H132.529H133.585H146.731C156.253 109.973 146.273 86.1337 139.432 77.1126Z" fill="#EABDFF"/>
<path d="M143.374 90.0366C138.172 91.1092 139.836 99.1678 145.047 98.0952C150.246 97.0226 148.585 88.9606 143.374 90.0366Z" fill="#EB93BB"/>
<path d="M115.267 95.8351C110.062 96.9077 111.726 104.973 116.939 103.897C122.147 102.824 120.483 94.7592 115.267 95.8351Z" fill="#EB93BB"/>
<path d="M115.991 98.8936C116.098 98.8909 116.21 98.8855 116.309 98.8744C117.175 98.7734 117.661 98.312 117.648 97.8725C117.627 97.3673 116.998 97.0204 116.124 97.0342C113.877 97.0641 111.604 97.0231 109.356 96.9085C108.78 96.8784 108.267 97.0095 107.953 97.2663C107.604 97.5475 107.553 97.9379 107.811 98.2574C108.052 98.5551 108.53 98.7408 109.124 98.7707C111.393 98.8828 113.705 98.9265 115.991 98.8936Z" fill="#9C5CE0"/>
<path d="M115.555 100.019C113.831 100.636 112.095 101.276 110.405 101.921C109.588 102.233 109.496 102.884 109.828 103.337C110.103 103.713 110.675 103.982 111.328 103.884C111.458 103.866 111.595 103.829 111.732 103.777C113.419 103.135 115.147 102.496 116.864 101.881C117.326 101.716 117.612 101.419 117.646 101.065C117.677 100.676 117.406 100.285 116.959 100.068C116.536 99.8688 116.028 99.8503 115.555 100.019Z" fill="#9C5CE0"/>
<path d="M144.274 92.8852C144.39 92.868 144.514 92.839 144.633 92.7956C146.423 92.1625 148.214 91.4832 149.949 90.7809C150.73 90.4631 150.792 89.833 150.454 89.4022C150.131 88.9919 149.412 88.7344 148.667 89.0353C146.943 89.7347 145.167 90.4082 143.392 91.0353C142.611 91.3128 142.502 91.8967 142.803 92.3332C143.061 92.7059 143.62 92.9806 144.274 92.8852Z" fill="#9C5CE0"/>
<path d="M150.205 94.8276C149.968 94.4845 149.596 94.3085 149.181 94.34C147.446 94.4783 145.634 94.5602 143.796 94.5821C143.39 94.5852 143.046 94.7897 142.855 95.1359C142.65 95.4942 142.647 95.9411 142.846 96.2744C143.02 96.5668 143.336 96.7335 143.705 96.7304C145.594 96.7085 147.557 96.614 149.539 96.4567C149.59 96.4536 149.636 96.4474 149.684 96.4348C149.977 96.3751 150.202 96.2053 150.324 95.9473C150.489 95.6074 150.438 95.1672 150.205 94.8276Z" fill="#9C5CE0"/>
<path d="M67.0194 102.4L115.315 125.842C115.445 125.905 115.591 125.924 115.733 125.895C115.874 125.867 116.002 125.792 116.097 125.684L128.114 111.977L80.1246 91.374L66.9119 101.281C66.8216 101.349 66.7502 101.438 66.7046 101.542C66.6589 101.645 66.6407 101.758 66.6515 101.871C66.6622 101.983 66.7018 102.091 66.7662 102.184C66.8306 102.276 66.9178 102.351 67.0194 102.4Z" fill="#938FE2"/>
<path d="M137.648 104.904C137.648 109.323 134.738 112.904 131.148 112.904C127.559 112.904 124.648 109.323 124.648 104.904C124.648 100.486 127.559 96.9043 131.148 96.9043C134.738 96.9043 137.648 100.486 137.648 104.904Z" fill="#AE77AC"/>
<path d="M176.103 91.8765L189.431 103.926C189.513 104 189.574 104.092 189.611 104.196C189.647 104.299 189.657 104.41 189.64 104.518C189.623 104.627 189.579 104.729 189.512 104.816C189.445 104.903 189.358 104.972 189.258 105.016L141.558 126.305C141.431 126.362 141.289 126.377 141.152 126.348C141.016 126.318 140.892 126.247 140.799 126.143L128.113 111.977L176.103 91.8765Z" fill="#938FE2"/>
<path d="M128.492 70.771L176.239 91.8764L183.105 90.2849C183.24 90.2536 183.362 90.1805 183.453 90.076C183.544 89.9715 183.6 89.841 183.612 89.703C183.625 89.5649 183.594 89.4265 183.523 89.3073C183.452 89.1881 183.346 89.0943 183.218 89.0391L139.62 70.148C139.525 70.1067 139.421 70.0885 139.317 70.095L128.492 70.771Z" fill="#938FE2"/>
<path d="M128.491 70.7708L81.0124 91.4721L75.0104 90.4635C74.8715 90.4376 74.7445 90.3677 74.6484 90.264C74.5523 90.1604 74.492 90.0286 74.4766 89.8881C74.4612 89.7476 74.4913 89.6058 74.5627 89.4838C74.6341 89.3617 74.7428 89.2659 74.8728 89.2104L119.549 69.9568C119.647 69.9149 119.755 69.8976 119.862 69.9066L128.491 70.7708Z" fill="#938FE2"/>
<path d="M155.956 55.3298C156.476 54.0018 157.975 53.3474 159.303 53.868C160.631 54.3886 161.285 55.8872 160.765 57.2152L158.056 64.1233C157.536 65.4513 156.037 66.1058 154.709 65.5851C153.381 65.0645 152.727 63.5659 153.247 62.2379L155.956 55.3298Z" fill="#938FE2"/>
<path d="M106.357 52.5949C105.709 51.3241 106.214 49.7688 107.485 49.121C108.755 48.4732 110.311 48.9783 110.958 50.2491L115.47 59.099C116.118 60.3698 115.613 61.9251 114.342 62.5729C113.071 63.2207 111.516 62.7157 110.868 61.4449L106.357 52.5949Z" fill="#938FE2"/>
<path d="M164.663 65.13C166.064 64.8613 167.417 65.7792 167.686 67.18C167.954 68.5809 167.037 69.9343 165.636 70.2029L160.664 71.1564C159.263 71.425 157.91 70.5072 157.641 69.1064C157.373 67.7055 158.29 66.3521 159.691 66.0834L164.663 65.13Z" fill="#938FE2"/>
<path d="M96.76 67.2437C95.4018 66.8079 94.6541 65.3536 95.0899 63.9954C95.5257 62.6372 96.98 61.8895 98.3382 62.3253L104.134 64.1851C105.492 64.6209 106.24 66.0752 105.804 67.4334C105.368 68.7916 103.914 69.5393 102.556 69.1035L96.76 67.2437Z" fill="#938FE2"/>
<path d="M123.58 97.5657C122.637 97.701 121.682 97.4882 120.904 96.9712C120.797 96.85 120.726 96.7036 120.697 96.5459C120.668 96.3882 120.683 96.2249 120.74 96.0738C120.86 95.9101 121.042 95.7985 121.245 95.7614C121.448 95.7245 121.657 95.7649 121.827 95.8757C122.284 96.0938 122.803 96.1622 123.307 96.0703C123.81 95.9786 124.272 95.7316 124.622 95.3665C124.878 95.0116 125.345 94.9265 125.554 95.1968C125.764 95.468 125.883 95.8329 125.717 96.0942C125.481 96.4654 125.17 96.7871 124.802 97.0406C124.434 97.2939 124.019 97.4728 123.58 97.5657Z" fill="#9C5CE0"/>
<path d="M136.649 95.0544C135.698 95.1832 134.721 94.8879 133.911 94.2291C133.798 94.0775 133.72 93.8966 133.685 93.7036C133.65 93.5106 133.659 93.3124 133.711 93.1308C133.827 92.9361 134.007 92.8072 134.212 92.7698C134.416 92.7327 134.63 92.7898 134.807 92.9312C135.279 93.2139 135.808 93.3169 136.316 93.2243C136.823 93.1319 137.282 92.8489 137.624 92.4179C137.87 91.9958 138.34 91.9101 138.562 92.2469C138.786 92.5849 138.921 93.0336 138.762 93.3452C138.537 93.788 138.234 94.1675 137.869 94.462C137.506 94.7562 137.091 94.9581 136.649 95.0544Z" fill="#9C5CE0"/>
</svg>
