<svg width="255" height="228" viewBox="0 0 255 228" fill="none" xmlns="http://www.w3.org/2000/svg">
<path d="M170.15 9.44803C170.15 9.44803 133.817 54.7742 75.3556 27.1675C16.8945 -0.43915 -28.6915 78.9783 21.6502 124.448C71.9919 169.918 9.85338 190.186 44.0535 218.053C82.9242 249.726 127.296 186.332 158.15 200.948C201.65 240.948 254.799 218.053 254.799 182.252C254.799 124.448 209.33 112.424 228.816 78.321C263.65 43.4481 204.65 -25.0519 170.15 9.44803Z" fill="#DBD8FF"/>
<path d="M128.115 114.021V175.83L80.125 155.102L80.3539 93.516L128.115 114.021Z" fill="#6559F5"/>
<path d="M128.117 114.058V175.867L175.873 155.855V93.7133L128.117 114.058Z" fill="#B0AAFF"/>
<path d="M128.115 114.021L176.104 93.9201L128.492 72.8147L80.125 93.4177L128.115 114.021Z" fill="#6559F5"/>
<path d="M128.492 72.8146L176.239 93.92L183.105 92.3285C183.24 92.2972 183.362 92.2241 183.453 92.1196C183.544 92.0151 183.6 91.8846 183.612 91.7465C183.625 91.6085 183.594 91.47 183.523 91.3509C183.452 91.2317 183.346 91.1378 183.218 91.0827L139.62 72.1916C139.525 72.1503 139.421 72.1321 139.317 72.1386L128.492 72.8146Z" fill="#938FE2"/>
<path d="M128.491 72.8145L81.0124 93.5158L75.0104 92.5072C74.8715 92.4813 74.7445 92.4114 74.6484 92.3077C74.5523 92.2041 74.492 92.0723 74.4766 91.9318C74.4612 91.7913 74.4913 91.6495 74.5627 91.5275C74.6341 91.4054 74.7428 91.3096 74.8728 91.2541L119.549 72.0005C119.647 71.9586 119.755 71.9413 119.862 71.9503L128.491 72.8145Z" fill="#938FE2"/>
<path d="M140.519 65.78C138.309 62.7908 133.713 63.6044 132.574 67.168L129.32 77.3663C129.186 77.7927 128.837 78.1102 128.411 78.2015L122.948 79.3546C122.492 79.4502 122.023 79.272 121.74 78.8978L115.268 70.3528C113.587 68.1339 110.154 68.7996 109.382 71.4925L105.834 83.923C105.734 84.5887 102.742 93.3383 102.304 95.2657C100.885 101.531 102.477 108.575 106.121 113.948H127.943H131.208H132.631H150.363C163.208 111.233 149.746 78.2581 140.519 65.78Z" fill="#EBC7EA"/>
<path d="M145.834 83.6566C138.818 85.1402 141.062 96.287 148.09 94.8034C155.103 93.3198 152.863 82.1683 145.834 83.6566Z" fill="#EB93BB"/>
<path d="M107.923 91.6769C100.903 93.1604 103.147 104.316 110.179 102.828C117.204 101.344 114.959 90.1886 107.923 91.6769Z" fill="#EB93BB"/>
<path d="M108.901 95.9076C109.046 95.9038 109.197 95.8963 109.331 95.8809C110.498 95.7413 111.154 95.103 111.136 94.4951C111.107 93.7963 110.26 93.3165 109.081 93.3356C106.05 93.3769 102.983 93.3202 99.9522 93.1618C99.1741 93.1201 98.483 93.3015 98.0591 93.6566C97.5887 94.0456 97.5191 94.5856 97.8675 95.0275C98.1927 95.4394 98.8373 95.6962 99.6386 95.7375C102.699 95.8926 105.817 95.953 108.901 95.9076Z" fill="#9C5CE0"/>
<path d="M108.667 97.4638C106.631 98.3183 104.583 99.2022 102.588 100.095C101.624 100.526 101.516 101.427 101.908 102.053C102.232 102.574 102.907 102.946 103.677 102.81C103.831 102.785 103.993 102.734 104.155 102.662C106.145 101.774 108.185 100.89 110.211 100.04C110.756 99.8112 111.094 99.4011 111.134 98.9104C111.17 98.373 110.851 97.8317 110.324 97.5315C109.824 97.2565 109.225 97.2308 108.667 97.4638Z" fill="#9C5CE0"/>
<path d="M147.052 87.5968C147.209 87.5729 147.375 87.5328 147.537 87.4728C149.951 86.5972 152.366 85.6576 154.707 84.6861C155.76 84.2465 155.843 83.3749 155.388 82.7791C154.952 82.2115 153.982 81.8554 152.978 82.2715C150.652 83.2389 148.257 84.1706 145.862 85.0379C144.809 85.4218 144.662 86.2295 145.068 86.8332C145.416 87.3488 146.17 87.7287 147.052 87.5968Z" fill="#9C5CE0"/>
<path d="M155.053 90.2833C154.735 89.8089 154.232 89.5653 153.672 89.609C151.332 89.8002 148.888 89.9135 146.41 89.9438C145.861 89.9481 145.397 90.231 145.14 90.7098C144.864 91.2055 144.86 91.8236 145.128 92.2847C145.362 92.6891 145.788 92.9196 146.287 92.9153C148.834 92.885 151.481 92.7544 154.155 92.5368C154.224 92.5325 154.286 92.5239 154.351 92.5066C154.746 92.4239 155.049 92.1891 155.214 91.8322C155.437 91.3621 155.368 90.7531 155.053 90.2833Z" fill="#9C5CE0"/>
<path d="M133.883 95.553C133.883 96.6039 133.044 97.7303 132.04 96.5403C131.495 95.892 130.086 95.9121 129.678 96.6633C129.339 97.2882 128.839 98.5746 127.343 97.8466C126.847 97.6074 126.481 96.8893 126.213 96.5169C125.359 95.3104 123.088 96.5169 123.943 97.7204C124.84 98.9834 126.091 100.283 128.118 100.333C129.487 100.366 130.196 99.653 130.917 98.8652C131.768 99.3671 133.04 99.6417 134.295 99.1097C135.997 98.3886 136.648 96.6613 136.619 95.43C136.579 93.7229 133.883 94.1349 133.883 95.553Z" fill="#8F51D2"/>
<path d="M67.0194 104.444L115.315 127.886C115.445 127.949 115.591 127.967 115.733 127.939C115.874 127.91 116.002 127.836 116.097 127.727L128.114 114.02L80.1246 93.4175L66.9119 103.324C66.8216 103.392 66.7502 103.482 66.7046 103.585C66.6589 103.688 66.6407 103.802 66.6515 103.914C66.6622 104.027 66.7018 104.134 66.7662 104.227C66.8306 104.32 66.9178 104.394 67.0194 104.444Z" fill="#938FE2"/>
<path d="M176.103 93.92L189.431 105.97C189.513 106.043 189.574 106.136 189.611 106.239C189.647 106.343 189.657 106.454 189.64 106.562C189.623 106.67 189.579 106.772 189.512 106.859C189.445 106.946 189.358 107.015 189.258 107.06L141.558 128.348C141.431 128.405 141.289 128.42 141.152 128.391C141.016 128.362 140.892 128.29 140.799 128.186L128.113 114.02L176.103 93.92Z" fill="#938FE2"/>
<path d="M138.139 86.1344C138.057 85.5378 137.729 84.9921 137.373 84.6213C137.002 84.2336 136.518 83.9438 136.026 83.948C135.074 83.9608 134.037 84.6981 133.793 85.9383C133.72 86.3091 133.626 86.6929 133.653 87.0764C133.714 87.8734 133.811 88.5297 134.265 89.1437C134.645 89.6594 135.284 90.0683 135.852 90.0598C136.445 90.0513 137.063 89.834 137.492 89.2886C137.616 89.1009 137.741 88.909 137.866 88.7217C138.085 88.2827 138.203 87.8009 138.216 87.281C138.267 86.9014 138.188 86.5137 138.139 86.1344Z" fill="#8F51D2"/>
<path d="M160.175 61.6385C160.445 60.2379 161.799 59.3215 163.2 59.5916C164.601 59.8618 165.517 61.2161 165.247 62.6167L163.842 69.9025C163.572 71.3031 162.217 72.2195 160.817 71.9494C159.416 71.6792 158.5 70.3249 158.77 68.9243L160.175 61.6385Z" fill="#938FE2"/>
<path d="M102.981 57.898C102.573 56.5313 103.35 55.0925 104.717 54.6843C106.084 54.2762 107.522 55.0533 107.931 56.42L110.177 63.9408C110.585 65.3075 109.808 66.7464 108.441 67.1545C107.074 67.5627 105.635 66.7856 105.227 65.4188L102.981 57.898Z" fill="#938FE2"/>
<path d="M168.757 70.7404C170.03 70.0973 171.584 70.608 172.227 71.8812C172.87 73.1543 172.359 74.7078 171.086 75.351L166.568 77.6334C165.295 78.2765 163.741 77.7658 163.098 76.4926C162.455 75.2195 162.966 73.666 164.239 73.0228L168.757 70.7404Z" fill="#938FE2"/>
<path d="M93.47 69.4222C92.464 68.411 92.4682 66.7758 93.4793 65.7697C94.4905 64.7637 96.1258 64.7679 97.1318 65.7791L101.425 70.0941C102.431 71.1053 102.427 72.7406 101.416 73.7466C100.404 74.7526 98.7692 74.7485 97.7631 73.7373L93.47 69.4222Z" fill="#938FE2"/>
<path fill-rule="evenodd" clip-rule="evenodd" d="M118.838 88.2391C119.027 87.7914 119.544 87.5817 119.991 87.7707L124.189 89.5435C124.857 89.8252 124.998 90.7083 124.453 91.1846L121.02 94.1813C120.653 94.5009 120.098 94.4632 119.778 94.097C119.458 93.7309 119.496 93.175 119.862 92.8554L122.355 90.6793L119.307 89.3921C118.859 89.2031 118.649 88.6868 118.838 88.2391Z" fill="#8F51D2"/>
</svg>
