<svg width="24" height="24" viewBox="0 0 24 24" fill="none" xmlns="http://www.w3.org/2000/svg">
<g id="my_location">
<mask id="mask0_345_4340" style="mask-type:alpha" maskUnits="userSpaceOnUse" x="0" y="0" width="24" height="24">
<rect id="Bounding box" width="24" height="24" fill="#D9D9D9"/>
</mask>
<g mask="url(#mask0_345_4340)">
<path id="my_location_2" d="M10.9998 22.95V20.95C8.91647 20.7167 7.12897 19.8542 5.6373 18.3625C4.14564 16.8708 3.28314 15.0833 3.0498 13H1.0498V11H3.0498C3.28314 8.91665 4.14564 7.12915 5.6373 5.63749C7.12897 4.14582 8.91647 3.28332 10.9998 3.04999V1.04999H12.9998V3.04999C15.0831 3.28332 16.8706 4.14582 18.3623 5.63749C19.854 7.12915 20.7165 8.91665 20.9498 11H22.9498V13H20.9498C20.7165 15.0833 19.854 16.8708 18.3623 18.3625C16.8706 19.8542 15.0831 20.7167 12.9998 20.95V22.95H10.9998ZM11.9998 19C13.9331 19 15.5831 18.3167 16.9498 16.95C18.3165 15.5833 18.9998 13.9333 18.9998 12C18.9998 10.0667 18.3165 8.41665 16.9498 7.04999C15.5831 5.68332 13.9331 4.99999 11.9998 4.99999C10.0665 4.99999 8.41647 5.68332 7.0498 7.04999C5.68314 8.41665 4.9998 10.0667 4.9998 12C4.9998 13.9333 5.68314 15.5833 7.0498 16.95C8.41647 18.3167 10.0665 19 11.9998 19ZM11.9998 16C10.8998 16 9.95814 15.6083 9.1748 14.825C8.39147 14.0417 7.9998 13.1 7.9998 12C7.9998 10.9 8.39147 9.95832 9.1748 9.17499C9.95814 8.39165 10.8998 7.99999 11.9998 7.99999C13.0998 7.99999 14.0415 8.39165 14.8248 9.17499C15.6081 9.95832 15.9998 10.9 15.9998 12C15.9998 13.1 15.6081 14.0417 14.8248 14.825C14.0415 15.6083 13.0998 16 11.9998 16ZM11.9998 14C12.5498 14 13.0206 13.8042 13.4123 13.4125C13.804 13.0208 13.9998 12.55 13.9998 12C13.9998 11.45 13.804 10.9792 13.4123 10.5875C13.0206 10.1958 12.5498 9.99999 11.9998 9.99999C11.4498 9.99999 10.979 10.1958 10.5873 10.5875C10.1956 10.9792 9.9998 11.45 9.9998 12C9.9998 12.55 10.1956 13.0208 10.5873 13.4125C10.979 13.8042 11.4498 14 11.9998 14Z" fill="#1C1B1F"/>
</g>
</g>
</svg>
