<svg width="20" height="21" viewBox="0 0 20 21" fill="none" xmlns="http://www.w3.org/2000/svg">
<g id="Layer 198">
<path id="Vector" d="M10 0.0698242C8.02219 0.0698242 6.08879 0.656314 4.4443 1.75513C2.79981 2.85394 1.51809 4.41573 0.761209 6.24299C0.00433284 8.07025 -0.193701 10.0809 0.192152 12.0207C0.578004 13.9605 1.53041 15.7424 2.92894 17.1409C4.32746 18.5394 6.10929 19.4918 8.0491 19.8777C9.98891 20.2635 11.9996 20.0655 13.8268 19.3086C15.6541 18.5517 17.2159 17.27 18.3147 15.6255C19.4135 13.981 20 12.0476 20 10.0698C20 7.41766 18.9464 4.87412 17.0711 2.99876C15.1957 1.12339 12.6522 0.0698242 10 0.0698242ZM17.9 11.2898C17.7064 11.1649 17.5284 11.0172 17.37 10.8498C17.264 10.7353 17.1732 10.6076 17.1 10.4698C17.0518 10.384 17.0244 10.2881 17.02 10.1898V10.0598C17.0621 9.92652 17.1508 9.81288 17.27 9.73982C17.4941 9.61015 17.7427 9.52843 18 9.49982C18 9.68982 18 9.88982 18 10.0798C17.9968 10.4851 17.9634 10.8895 17.9 11.2898ZM10.57 2.09982C10.6838 2.2272 10.7812 2.36829 10.86 2.51982C11.0001 2.83451 11.0717 3.17537 11.07 3.51982C11.074 3.72518 11.0366 3.92924 10.96 4.11982C10.901 4.26575 10.8044 4.39342 10.68 4.48982C10.4896 4.61414 10.2847 4.71488 10.07 4.78982C9.53419 4.98626 9.01573 5.22709 8.52001 5.50982C8.22157 5.69261 7.96032 5.9301 7.75 6.20982C7.51331 6.52724 7.37118 6.9051 7.34 7.29982V7.44982C7.32814 7.88892 7.46564 8.31904 7.73 8.66982C8.06994 9.07942 8.53886 9.36148 9.06001 9.46982C9.43432 9.55789 9.81591 9.61145 10.2 9.62982C10.3182 9.63425 10.4328 9.67242 10.53 9.73982C10.53 9.73982 10.58 9.73983 10.6 9.92982V10.0898C10.5884 10.3673 10.5448 10.6424 10.47 10.9098C10.39 11.2298 10.28 11.5998 10.2 12.0098C10.1311 12.4061 10.0977 12.8077 10.1 13.2098C10.0992 13.6398 10.1428 14.0688 10.23 14.4898C10.2441 14.6228 10.2441 14.7569 10.23 14.8898V15.0498L10.14 14.9998C9.95657 14.885 9.79421 14.7396 9.66 14.5698C9.47319 14.3468 9.29956 14.1131 9.14001 13.8698C9.02001 13.7198 8.89001 13.4898 8.72001 13.2298C8.5369 12.9231 8.30753 12.6465 8.04 12.4098C7.64177 12.0945 7.19173 11.8509 6.71 11.6898C6.36948 11.5752 6.03563 11.4417 5.71 11.2898C5.55268 11.2157 5.40766 11.1179 5.28 10.9998C5.19 10.9198 5.16 10.8798 5.15 10.8498V10.7098C5.15381 10.5353 5.18764 10.3628 5.25 10.1998C5.29711 10.0618 5.3682 9.93316 5.46 9.81982C5.63 9.61982 5.83 9.45982 6.08 9.16982C6.36616 8.83316 6.56532 8.43141 6.66 7.99982C6.73541 7.68885 6.77235 7.3698 6.77 7.04982C6.76618 6.08098 6.41085 5.14645 5.77 4.41982C5.5425 4.18217 5.28341 3.97691 5 3.80982C6.41654 2.67129 8.18268 2.05667 10 2.06982L10.57 2.09982ZM15.66 15.7298C14.2179 17.126 12.3036 17.929 10.297 17.9795C8.2904 18.03 6.33812 17.3244 4.82753 16.0027C3.31693 14.6809 2.35841 12.8396 2.14214 10.844C1.92587 8.84846 2.46765 6.84453 3.66 5.22982C3.93791 5.30746 4.18557 5.46792 4.37 5.68982C4.70443 6.06323 4.88644 6.5486 4.88 7.04982C4.87871 7.22481 4.85859 7.39914 4.82 7.56982C4.79389 7.72084 4.72834 7.86228 4.63 7.97982C4.53 8.09982 4.32 8.27982 4.05 8.57982C3.79218 8.87133 3.59501 9.21128 3.47 9.57982C3.32613 9.9532 3.25158 10.3497 3.25 10.7498C3.24865 11.0039 3.28573 11.2568 3.36 11.4998C3.50033 11.8894 3.74195 12.2346 4.06 12.4998C4.30163 12.7013 4.56692 12.8726 4.85 13.0098C5.3 13.2298 5.72 13.3598 6.06 13.4898C6.33283 13.5777 6.58952 13.7094 6.82 13.8798C6.94585 14.0004 7.05363 14.1385 7.14 14.2898C7.27 14.4798 7.41 14.7298 7.6 14.9898C7.86553 15.3985 8.1703 15.7803 8.51 16.1298C8.72573 16.35 8.9715 16.5385 9.24 16.6898C9.54592 16.8623 9.88898 16.9584 10.24 16.9698C10.5375 16.9736 10.8318 16.9086 11.1 16.7798C11.4781 16.5893 11.776 16.2702 11.94 15.8798C12.0756 15.5644 12.1405 15.223 12.13 14.8798C12.127 14.6075 12.0968 14.3362 12.04 14.0698C11.9788 13.7839 11.9487 13.4922 11.95 13.1998C11.9481 12.9117 11.9715 12.6239 12.02 12.3398C12.07 12.0598 12.17 11.7398 12.26 11.3398C12.3801 10.9235 12.444 10.4931 12.45 10.0598C12.4599 9.93669 12.4599 9.81296 12.45 9.68982C12.4036 9.13589 12.1414 8.62235 11.72 8.25982C11.326 7.93499 10.8396 7.74255 10.33 7.70982C9.99043 7.69946 9.65392 7.64225 9.33 7.53982L9.24 7.48982V7.38982C9.24 7.28982 9.24 7.28982 9.34 7.18982C9.63749 6.95487 9.97681 6.77842 10.34 6.66982C10.8547 6.50517 11.3481 6.28028 11.81 5.99982C12.2085 5.70079 12.5194 5.30016 12.71 4.83982C12.8988 4.40761 12.9974 3.94145 13 3.46982C12.997 3.18044 12.9634 2.89218 12.9 2.60982C14.0145 3.03622 15.0196 3.70654 15.8415 4.57169C16.6634 5.43684 17.2813 6.4749 17.65 7.60982C17.1738 7.69988 16.719 7.87975 16.31 8.13982C15.8197 8.46268 15.4641 8.95339 15.31 9.51982C15.2419 9.7297 15.2081 9.94919 15.21 10.1698C15.2142 10.5556 15.3066 10.9352 15.48 11.2798C15.7095 11.7332 16.0294 12.1348 16.42 12.4598C16.7273 12.734 17.0625 12.9753 17.42 13.1798C17.0022 14.1348 16.4047 15.0005 15.66 15.7298Z" fill="#9EA4AA"/>
</g>
</svg>
