<svg width="231" height="219" viewBox="0 0 231 219" fill="none" xmlns="http://www.w3.org/2000/svg">
<g id="Frame 1686558054">
<path id="Vector" d="M154.252 9.09C154.252 9.09 121.314 52.6985 68.315 26.138C15.316 -0.422506 -26.0108 75.9854 19.6274 119.732C65.2655 163.479 8.93276 182.979 39.9375 209.79C75.1764 240.263 115.402 179.271 143.374 193.333C182.81 231.817 230.993 209.79 230.993 175.346C230.993 119.732 189.772 108.164 207.437 75.353C239.016 41.8016 185.529 -24.1026 154.252 9.09Z" fill="#DBD8FF"/>
<path id="Vector_2" d="M138.112 81.7515H102.683L81.0312 102.449H157.228L138.112 81.7515Z" fill="#6559F5"/>
<path id="Vector_3" d="M88.2488 73.4727L102.683 81.7516L81.0316 102.449L64.6289 91.2132L88.2488 73.4727Z" fill="#938FE2"/>
<path id="Vector_4" d="M152.548 73.4727L138.113 81.7516L157.228 102.449L176.167 91.2132L152.548 73.4727Z" fill="#938FE2"/>
<path id="Vector_5" d="M132.602 64.0152C130.1 60.7271 124.894 61.6221 123.604 65.542L119.919 76.7601C119.767 77.2292 119.371 77.5784 118.889 77.6788L112.701 78.9473C112.184 79.0524 111.654 78.8564 111.333 78.4448L104.002 69.0452C102.099 66.6045 98.2101 67.3367 97.3367 70.299L93.3174 83.9725C93.2044 84.7047 89.8151 94.3293 89.3197 96.4494C87.712 103.341 89.5153 111.089 93.6432 117H118.359H122.057H123.669H143.752C158.3 114.014 143.053 77.7412 132.602 64.0152Z" fill="#F9CDF8"/>
<path id="Vector_6" d="M138.728 83.9412C131.338 85.5592 133.701 97.7154 141.104 96.0974C148.49 94.4795 146.13 82.3181 138.728 83.9412Z" fill="#FF8FC2"/>
<path id="Vector_7" d="M95.7117 92.2429C87.6527 93.8601 90.2289 106.02 98.3012 104.399C106.365 102.781 103.788 90.6205 95.7117 92.2429Z" fill="#FF8FC2"/>
<path id="Vector_8" d="M110.899 87.8619C110.809 87.081 110.451 86.3666 110.063 85.8813C109.658 85.3739 109.13 84.9945 108.593 85.0001C107.555 85.0167 106.423 85.9818 106.158 87.6051C106.078 88.0904 105.975 88.5928 106.005 89.0948C106.072 90.138 106.178 90.9971 106.672 91.8007C107.087 92.4757 107.784 93.0109 108.404 92.9998C109.051 92.9887 109.724 92.7042 110.192 91.9904C110.328 91.7447 110.464 91.4935 110.6 91.2483C110.839 90.6738 110.968 90.0432 110.982 89.3627C111.038 88.8658 110.952 88.3583 110.899 87.8619Z" fill="#9C5CE0"/>
<path id="Vector_9" d="M129.899 84.8619C129.809 84.081 129.451 83.3666 129.063 82.8813C128.658 82.3739 128.13 81.9945 127.593 82.0001C126.555 82.0167 125.423 82.9818 125.158 84.6051C125.078 85.0904 124.975 85.5928 125.005 86.0948C125.072 87.138 125.178 87.9971 125.672 88.8007C126.087 89.4757 126.784 90.0109 127.404 89.9998C128.051 89.9887 128.724 89.7042 129.192 88.9904C129.328 88.7447 129.464 88.4935 129.6 88.2483C129.839 87.6738 129.968 87.0432 129.982 86.3627C130.038 85.8658 129.952 85.3583 129.899 84.8619Z" fill="#9C5CE0"/>
<path id="Vector_10" d="M97.3614 97.2607C97.4727 97.255 97.5884 97.2438 97.6908 97.2207C98.5854 97.0111 99.0884 96.0534 99.0751 95.1412C99.0528 94.0928 98.4029 93.3728 97.4994 93.4015C95.1759 93.4635 92.8257 93.3784 90.5022 93.1407C89.9057 93.0781 89.376 93.3503 89.0511 93.8832C88.6906 94.4669 88.6372 95.277 88.9042 95.9401C89.1535 96.5581 89.6476 96.9435 90.2618 97.0055C92.6076 97.2381 94.9978 97.3288 97.3614 97.2607Z" fill="#9C5CE0"/>
<path id="Vector_11" d="M97.6752 99.5365C95.6693 100.498 93.6501 101.493 91.6841 102.497C90.7344 102.983 90.6279 103.997 91.014 104.701C91.3335 105.287 91.9992 105.706 92.7581 105.553C92.909 105.525 93.0687 105.468 93.2285 105.387C95.19 104.387 97.2003 103.392 99.1973 102.436C99.7343 102.178 100.067 101.717 100.107 101.164C100.143 100.56 99.8275 99.9506 99.3083 99.6127C98.8157 99.3032 98.2254 99.2743 97.6752 99.5365Z" fill="#9C5CE0"/>
<path id="Vector_12" d="M139.641 87.9188C139.806 87.8964 139.982 87.8588 140.152 87.8025C142.697 86.9814 145.241 86.1002 147.709 85.1892C148.819 84.7769 148.906 83.9595 148.426 83.4008C147.967 82.8685 146.945 82.5345 145.887 82.9248C143.435 83.832 140.911 84.7057 138.387 85.5191C137.277 85.8792 137.122 86.6366 137.55 87.2028C137.917 87.6862 138.712 88.0426 139.641 87.9188Z" fill="#9C5CE0"/>
<path id="Vector_13" d="M149.39 90.8706C149.011 90.2759 148.412 89.9706 147.745 90.0253C144.957 90.265 142.046 90.407 139.093 90.445C138.44 90.4504 137.887 90.805 137.58 91.4052C137.251 92.0266 137.247 92.8014 137.567 93.3794C137.845 93.8863 138.353 94.1753 138.947 94.1699C141.982 94.1319 145.135 93.9682 148.321 93.6955C148.403 93.6901 148.476 93.6792 148.554 93.6575C149.024 93.554 149.385 93.2595 149.582 92.8122C149.847 92.2229 149.765 91.4595 149.39 90.8706Z" fill="#9C5CE0"/>
<path id="Line 1 (Stroke)" fill-rule="evenodd" clip-rule="evenodd" d="M125.357 96.1283C121.062 94.3634 116.117 95.6493 113.225 99.2831L112.377 100.349C111.949 100.887 111.166 100.976 110.627 100.548C110.089 100.12 110 99.3361 110.428 98.7979L111.276 97.7322C114.858 93.2311 120.983 91.6383 126.304 93.8245C126.94 94.0859 127.244 94.8135 126.982 95.4497C126.721 96.0859 125.993 96.3897 125.357 96.1283Z" fill="#9C5CE0"/>
<path id="Ellipse 5066" d="M111.11 91.4581C111.291 92.2635 110.084 93.2201 108.414 93.5948C106.744 93.9695 105.244 93.6205 105.064 92.8151C104.883 92.0098 106.09 91.0532 107.76 90.6784C109.429 90.3037 110.929 90.6528 111.11 91.4581Z" fill="#2F92FF"/>
<path id="Ellipse 5067" d="M131.346 88.4787C131.465 89.2955 130.19 90.1577 128.497 90.4046C126.804 90.6515 125.335 90.1896 125.216 89.3729C125.097 88.5561 126.372 87.6939 128.065 87.447C129.758 87.2001 131.227 87.662 131.346 88.4787Z" fill="#2F92FF"/>
<path id="Ellipse 5068" d="M129.024 87.8261C129.079 88.1252 128.576 88.4688 127.899 88.5936C127.223 88.7184 126.63 88.5771 126.575 88.2779C126.519 87.9788 127.023 87.6352 127.699 87.5104C128.376 87.3856 128.969 87.5269 129.024 87.8261Z" fill="#99E3FB"/>
<path id="Ellipse 5069" d="M109.683 90.9992C109.75 91.3572 109.178 91.7628 108.407 91.905C107.636 92.0473 106.957 91.8724 106.891 91.5144C106.825 91.1564 107.397 90.7509 108.168 90.6086C108.939 90.4664 109.617 90.6413 109.683 90.9992Z" fill="#99E3FB"/>
<path id="Vector_14" d="M81.0312 102.449H157.228V155.265C157.228 155.372 157.18 155.475 157.096 155.551C157.011 155.628 156.897 155.67 156.778 155.67H81.4812C81.3619 155.67 81.2474 155.628 81.163 155.551C81.0787 155.475 81.0312 155.372 81.0312 155.265V102.449Z" fill="#B0AAFF"/>
</g>
</svg>
