<svg width="26" height="19" viewBox="0 0 26 19" fill="none" xmlns="http://www.w3.org/2000/svg">
<path fill-rule="evenodd" clip-rule="evenodd" d="M25.2199 6.3829C25.2199 6.66809 24.9861 6.89887 24.6972 6.89887C23.2565 6.89887 22.0842 8.05624 22.0842 9.47864C22.0842 10.901 23.2565 12.0584 24.6972 12.0584C24.9861 12.0584 25.2199 12.2892 25.2199 12.5744V16.702C25.2199 17.8403 24.2824 18.7659 23.1295 18.7659H2.22521C1.07227 18.7659 0.134766 17.8403 0.134766 16.702V12.5744C0.134766 12.2892 0.368518 12.0584 0.657388 12.0584C2.09812 12.0584 3.2704 10.901 3.2704 9.47864C3.2704 8.05624 2.09812 6.89887 0.657388 6.89887C0.368518 6.89887 0.134766 6.66809 0.134766 6.3829V2.25525C0.134766 1.11699 1.07227 0.191406 2.22521 0.191406H23.1294C24.2824 0.191406 25.2199 1.11699 25.2199 2.25525V6.3829ZM6.92862 16.7021C7.21749 16.7021 7.45124 16.4713 7.45124 16.1861V15.1542C7.45124 14.869 7.21749 14.6382 6.92862 14.6382C6.63975 14.6382 6.40599 14.869 6.40599 15.1542V16.1861C6.40599 16.4713 6.63975 16.7021 6.92862 16.7021ZM7.45124 12.0584C7.45124 12.3436 7.21749 12.5744 6.92862 12.5744C6.63975 12.5744 6.40599 12.3436 6.40599 12.0584V11.0265C6.40599 10.7413 6.63975 10.5105 6.92862 10.5105C7.21749 10.5105 7.45124 10.7413 7.45124 11.0265V12.0584ZM6.92862 8.44674C7.21749 8.44674 7.45124 8.21596 7.45124 7.93077V6.89887C7.45124 6.61367 7.21749 6.3829 6.92862 6.3829C6.63975 6.3829 6.40599 6.61367 6.40599 6.89887V7.93077C6.40599 8.21596 6.63975 8.44674 6.92862 8.44674ZM7.45124 3.80312C7.45124 4.08832 7.21749 4.3191 6.92862 4.3191C6.63975 4.3191 6.40599 4.08832 6.40599 3.80312V2.64222C6.40599 2.35702 6.63975 2.12625 6.92862 2.12625C7.21749 2.12625 7.45124 2.35702 7.45124 2.64222V3.80312ZM11.6321 4.3191C10.4792 4.3191 9.54168 5.47647 9.54168 6.89887C9.54168 8.32127 10.4792 9.47864 11.6321 9.47864C12.785 9.47864 13.7226 8.32127 13.7226 6.89887C13.7226 5.47647 12.7851 4.3191 11.6321 4.3191ZM11.109 14.6382C11.0095 14.6382 10.909 14.61 10.8196 14.5515C10.5793 14.3933 10.5145 14.0734 10.6747 13.836L16.946 4.54881C17.1057 4.3115 17.4288 4.24751 17.6707 4.40573C17.9111 4.56395 17.9759 4.88388 17.8156 5.12123L11.5444 14.4085C11.4438 14.5576 11.2779 14.6382 11.109 14.6382ZM14.7677 12.0585C14.7677 13.4809 15.7053 14.6382 16.8582 14.6382C18.0111 14.6382 18.9486 13.4808 18.9486 12.0584C18.9486 10.636 18.0111 9.47864 16.8582 9.47864C15.7053 9.47864 14.7677 10.6361 14.7677 12.0585Z" fill="#6559F5"/>
</svg>
