<svg width="11" height="17" viewBox="0 0 11 17" fill="none" xmlns="http://www.w3.org/2000/svg">
<path id="Union" fill-rule="evenodd" clip-rule="evenodd" d="M5.5 0C4.02613 0 2.64684 0.475336 1.6293 1.42303C0.60416 2.3778 0 3.76257 0 5.46789C0 6.79259 0.730613 8.24241 1.54204 9.47091C2.1751 10.4294 2.90868 11.1742 3.53608 11.8112C3.73224 12.0104 3.91802 12.199 4.0871 12.3804C4.85752 13.2065 6.14248 13.2065 6.9129 12.3804C7.08198 12.199 7.26776 12.0104 7.46392 11.8112C8.09132 11.1742 8.8249 10.4294 9.45796 9.47091C10.2694 8.24241 11 6.79259 11 5.46789C11 3.76257 10.3958 2.3778 9.3707 1.42303C8.35316 0.475336 6.97387 0 5.5 0ZM5.65 4C4.73873 4 4 4.73873 4 5.65C4 6.56127 4.73873 7.3 5.65 7.3C6.56127 7.3 7.3 6.56127 7.3 5.65C7.3 4.73873 6.56127 4 5.65 4ZM1 16.5H10.5V15.5H1V16.5Z" fill="#FCFAF9"/>
</svg>
