<svg width="20" height="20" viewBox="0 0 20 20" fill="none" xmlns="http://www.w3.org/2000/svg">
<g id="add_photo_alternate">
<mask id="mask0_320_3632" style="mask-type:alpha" maskUnits="userSpaceOnUse" x="0" y="0" width="20" height="20">
<rect id="Bounding box" width="20" height="20" fill="#D9D9D9"/>
</mask>
<g mask="url(#mask0_320_3632)">
<path id="add_photo_alternate_2" d="M1.66667 17.5C1.20833 17.5 0.815972 17.3368 0.489583 17.0104C0.163194 16.684 0 16.2917 0 15.8333V4.16667C0 3.70833 0.163194 3.31597 0.489583 2.98958C0.815972 2.66319 1.20833 2.5 1.66667 2.5H9.16667V4.16667H1.66667V15.8333H13.3333V8.33333H15V15.8333C15 16.2917 14.8368 16.684 14.5104 17.0104C14.184 17.3368 13.7917 17.5 13.3333 17.5H1.66667ZM11.6667 7.5V5.83333H10V4.16667H11.6667V2.5H13.3333V4.16667H15V5.83333H13.3333V7.5H11.6667ZM2.5 14.1667H12.5L9.375 10L6.875 13.3333L5 10.8333L2.5 14.1667Z" fill="white"/>
</g>
</g>
</svg>
