<svg width="23" height="22" viewBox="0 0 23 22" fill="none" xmlns="http://www.w3.org/2000/svg">
<g id="Frame 1686558077">
<path id="Rectangle 96" d="M3.5 4.2C3.5 3.0799 3.5 2.51984 3.71799 2.09202C3.90973 1.71569 4.21569 1.40973 4.59202 1.21799C5.01984 1 5.5799 1 6.7 1H16.3C17.4201 1 17.9802 1 18.408 1.21799C18.7843 1.40973 19.0903 1.71569 19.282 2.09202C19.5 2.51984 19.5 3.0799 19.5 4.2V18.8532C19.5 19.8683 19.5 20.3759 19.2898 20.6465C19.1069 20.8821 18.8284 21.0238 18.5302 21.0328C18.1877 21.0431 17.7776 20.7441 16.9573 20.146L12.4427 16.854C12.104 16.6071 11.9346 16.4836 11.7494 16.4359C11.5858 16.3937 11.4142 16.3937 11.2506 16.4359C11.0654 16.4836 10.896 16.6071 10.5573 16.854L6.04267 20.146C5.22242 20.7441 4.8123 21.0431 4.46979 21.0328C4.17165 21.0238 3.8931 20.8821 3.71016 20.6465C3.5 20.3759 3.5 19.8683 3.5 18.8532V4.2Z" fill="#7C77C0"/>
</g>
</svg>
